<mxfile host="app.diagrams.net" modified="2024-01-16T13:14:54.423Z" agent="Mozilla/5.0 (Windows NT 10.0; Win64; x64) AppleWebKit/537.36 (KHTML, like Gecko) Chrome/120.0.0.0 Safari/537.36" version="22.1.18" etag="waQ8Oi60Bf3RBjfI3cfq" type="github">
  <diagram name="Page-1" id="M_Pv5YBmUQGVDgUteuOJ">
    <mxGraphModel>
      <root>
        <mxCell id="0" />
        <mxCell id="1" parent="0" />
      </root>
    </mxGraphModel>
  </diagram>
</mxfile>
